# xmcd
#
# Track frame offsets:
#	150
#	16632
#	31707
#	56954
#
# Disc length: 1214 seconds
#
# Revision: 0
# Processed by: cddbd v1.4PL0 Copyright (c) Steve Scherf et al.
# Submitted via: dBpowerAMP V4.0
#
DISCID=2404bc04
DTITLE=Johnny Cash - Hurt - Personal Jesus
DYEAR=2003
DGENRE=Country
TTITLE0=Hurt
TTITLE1=Personal Jesus
TTITLE2=Wichita Lineman
TTITLE3=DATA
EXTD=
EXTT0=
EXTT1=
EXTT2=
EXTT3=
PLAYORDER=
